<?xml version="1.0" encoding="UTF-8" standalone="no"?>
<!DOCTYPE svg PUBLIC "-//W3C//DTD SVG 1.1//EN" "http://www.w3.org/Graphics/SVG/1.1/DTD/svg11.dtd">
<!-- 由 Microsoft Visio, SVG Export 生成 activeInd.svg Page-1 -->
<svg xmlns="http://www.w3.org/2000/svg" xmlns:xlink="http://www.w3.org/1999/xlink" xmlns:ev="http://www.w3.org/2001/xml-events"
		xmlns:v="http://schemas.microsoft.com/visio/2003/SVGExtensions/" width="11.6929in" height="8.26772in"
		viewBox="0 0 841.89 595.276" xml:space="preserve" color-interpolation-filters="sRGB" class="st13">
	<v:documentProperties v:langID="2052" v:metric="true" v:viewMarkup="false">
		<v:userDefs>
			<v:ud v:nameU="msvSubprocessMaster" v:prompt="" v:val="VT4(Rectangle)"/>
			<v:ud v:nameU="msvNoAutoConnect" v:val="VT0(1):26"/>
		</v:userDefs>
	</v:documentProperties>

	<style type="text/css">
	<![CDATA[
		.st1 {stroke:#000000;stroke-linecap:butt;stroke-width:2.25}
		.st2 {marker-start:url(#mrkr13-16);stroke:#000000;stroke-linecap:butt;stroke-width:2.25}
		.st3 {fill:#000000;fill-opacity:1;stroke:#000000;stroke-opacity:1;stroke-width:0.40983606557377}
		.st4 {stroke:#000000;stroke-linecap:round;stroke-linejoin:round;stroke-width:2.25}
		.st5 {fill:#000000;stroke:#000000;stroke-width:2.25}
		.st6 {stroke:#000000;stroke-linecap:round;stroke-linejoin:round;stroke-width:4.5}
		.st7 {marker-end:url(#mrkr13-167);stroke:#000000;stroke-linecap:butt;stroke-width:2.25}
		.st8 {fill:none;stroke:#000000;stroke-width:2.25}
		.st9 {marker-start:url(#mrkr4-203);stroke:#000000;stroke-linecap:round;stroke-linejoin:round;stroke-width:2.25}
		.st10 {fill:#000000;fill-opacity:1;stroke:#000000;stroke-opacity:1;stroke-width:0.36231884057971}
		.st11 {fill:none;stroke:none;stroke-width:0.25}
		.st12 {fill:#000000;font-family:Calibri;font-size:1.5em;font-weight:bold}
		.st13 {fill:none;fill-rule:evenodd;font-size:12px;overflow:visible;stroke-linecap:square;stroke-miterlimit:3}
	]]>
	</style>

	<defs id="Markers">
		<g id="lend13">
			<path d="M 3 1 L 0 0 L 3 -1 L 3 1 " style="stroke:none"/>
		</g>
		<marker id="mrkr13-16" class="st3" v:arrowType="13" v:arrowSize="3" v:setback="7.16" refX="7.16" orient="auto"
				markerUnits="strokeWidth" overflow="visible">
			<use xlink:href="#lend13" transform="scale(2.44) "/>
		</marker>
		<marker id="mrkr13-167" class="st3" v:arrowType="13" v:arrowSize="3" v:setback="7.32" refX="-7.32" orient="auto"
				markerUnits="strokeWidth" overflow="visible">
			<use xlink:href="#lend13" transform="scale(-2.44,-2.44) "/>
		</marker>
		<g id="lend4">
			<path d="M 2 1 L 0 0 L 2 -1 L 2 1 " style="stroke:none"/>
		</g>
		<marker id="mrkr4-203" class="st10" v:arrowType="4" v:arrowSize="4" v:setback="5.36" refX="5.36" orient="auto"
				markerUnits="strokeWidth" overflow="visible">
			<use xlink:href="#lend4" transform="scale(2.76) "/>
		</marker>
	</defs>
	<g v:mID="0" v:index="1" v:groupContext="foregroundPage">
		<v:userDefs>
			<v:ud v:nameU="msvThemeOrder" v:val="VT0(0):26"/>
		</v:userDefs>
		<title>Page-1</title>
		<v:pageProperties v:drawingScale="0.0393701" v:pageScale="0.0393701" v:drawingUnits="24" v:shadowOffsetX="8.50394"
				v:shadowOffsetY="-8.50394"/>
		<g id="group1-1" transform="translate(297.638,-375.697)" v:mID="1" v:groupContext="group">
			<title>PMOS</title>
			<g id="shape2-2" v:mID="2" v:groupContext="shape" transform="translate(615.526,545.776) rotate(90)">
				<title>工作表.2</title>
				<path d="M0 595.28 L49.5 595.28" class="st1"/>
			</g>
			<g id="shape3-5" v:mID="3" v:groupContext="shape" transform="translate(606.526,550.276) rotate(90)">
				<title>工作表.3</title>
				<path d="M0 595.28 L40.5 595.28" class="st1"/>
			</g>
			<g id="shape4-8" v:mID="4" v:groupContext="shape" transform="translate(11.25,1165.8) rotate(180)">
				<title>工作表.4</title>
				<path d="M0 595.28 L11.25 595.28" class="st1"/>
			</g>
			<g id="shape5-11" v:mID="5" v:groupContext="shape" transform="translate(20.25,-40.5)">
				<title>工作表.5</title>
				<path d="M16.11 595.28 L16.47 595.28 L24.75 595.28" class="st2"/>
			</g>
			<g id="shape6-17" v:mID="6" v:groupContext="shape" transform="translate(21.375,-9)">
				<title>工作表.6</title>
				<path d="M0 595.28 L24.75 595.28" class="st1"/>
			</g>
		</g>
		<g id="group17-20" transform="translate(255.791,-434.87)" v:mID="17" v:groupContext="group">
			<title>CAP</title>
			<g id="shape18-21" v:mID="18" v:groupContext="shape" transform="translate(27,-9) scale(-1,1)">
				<title>line-99</title>
				<path d="M0 595.28 L27 595.28" class="st1"/>
			</g>
			<g id="shape19-24" v:mID="19" v:groupContext="shape" transform="translate(27,-1.13687E-13) scale(-1,1)">
				<title>line-99.21</title>
				<path d="M0 595.28 L27 595.28" class="st1"/>
			</g>
		</g>
		<g id="shape20-27" v:mID="20" v:groupContext="shape" transform="translate(-252.279,83.3498) rotate(-89.7828) scale(-1,1)">
			<title>Vertical</title>
			<path d="M0 595.28 L93.47 595.28" class="st4"/>
		</g>
		<g id="shape21-30" v:mID="21" v:groupContext="shape" transform="translate(939.118,210.614) rotate(90)">
			<title>Vertical.21</title>
			<path d="M0 595.28 L72.85 595.28" class="st4"/>
		</g>
		<g id="shape22-33" v:mID="22" v:groupContext="shape" transform="translate(-325.984,160.405) rotate(-90) scale(-1,1)">
			<title>Vertical.22</title>
			<path d="M0 595.28 L41.51 595.28" class="st4"/>
		</g>
		<g id="shape23-36" v:mID="23" v:groupContext="shape" transform="translate(269.291,-400.447)">
			<title>Horizontal</title>
			<path d="M0 595.28 L28.35 595.28" class="st4"/>
		</g>
		<g id="shape24-39" v:mID="24" v:groupContext="shape" transform="translate(267.041,-398.197)">
			<title>DOT</title>
			<path d="M0 593.03 A2.25 2.25 0 0 1 4.5 593.03 A2.25 2.25 0 1 1 0 593.03 Z" class="st5"/>
		</g>
		<g id="shape25-41" v:mID="25" v:groupContext="shape" transform="translate(864.567,85.0394) rotate(90)">
			<title>Vertical.25</title>
			<path d="M0 595.28 L65.91 595.28" class="st4"/>
		</g>
		<g id="shape26-44" v:mID="26" v:groupContext="shape" transform="translate(246.628,680.315) rotate(-0.00133667) scale(1,-1)">
			<title>Horizontal.26</title>
			<path d="M0 595.28 L379.84 595.28" class="st6"/>
		</g>
		<g id="shape27-47" v:mID="27" v:groupContext="shape" transform="translate(269.291,-311.811) rotate(9.52091E-07)">
			<title>Horizontal.27</title>
			<path d="M0 595.28 L154.77 595.28" class="st4"/>
		</g>
		<g id="shape28-50" v:mID="28" v:groupContext="shape" transform="translate(-325.984,273.543) rotate(-90) scale(-1,1)">
			<title>Vertical.28</title>
			<path d="M0 595.28 L9.39 595.28" class="st4"/>
		</g>
		<g id="shape38-53" v:mID="38" v:groupContext="shape" transform="translate(267.041,-507.986)">
			<title>DOT.38</title>
			<path d="M0 593.03 A2.25 2.25 0 0 1 4.5 593.03 A2.25 2.25 0 1 1 0 593.03 Z" class="st5"/>
		</g>
		<g id="shape39-55" v:mID="39" v:groupContext="shape" transform="translate(340.742,-507.986)">
			<title>DOT.39</title>
			<path d="M0 593.03 A2.25 2.25 0 0 1 4.5 593.03 A2.25 2.25 0 1 1 0 593.03 Z" class="st5"/>
		</g>
		<g id="shape78-57" v:mID="78" v:groupContext="shape" transform="translate(395.185,-309.561)">
			<title>DOT.78</title>
			<path d="M0 593.03 A2.25 2.25 0 0 1 4.5 593.03 A2.25 2.25 0 1 1 0 593.03 Z" class="st5"/>
		</g>
		<g id="group80-59" transform="translate(443.33,-375.706) scale(-1,1)" v:mID="80" v:groupContext="group">
			<title>PMOS.80</title>
			<g id="shape81-60" v:mID="81" v:groupContext="shape" transform="translate(615.526,545.776) rotate(90)">
				<title>工作表.81</title>
				<path d="M0 595.28 L49.5 595.28" class="st1"/>
			</g>
			<g id="shape82-63" v:mID="82" v:groupContext="shape" transform="translate(606.526,550.276) rotate(90)">
				<title>工作表.82</title>
				<path d="M0 595.28 L40.5 595.28" class="st1"/>
			</g>
			<g id="shape83-66" v:mID="83" v:groupContext="shape" transform="translate(11.25,1165.8) rotate(180)">
				<title>工作表.83</title>
				<path d="M0 595.28 L11.25 595.28" class="st1"/>
			</g>
			<g id="shape84-69" v:mID="84" v:groupContext="shape" transform="translate(20.25,-40.5)">
				<title>工作表.84</title>
				<path d="M16.11 595.28 L16.47 595.28 L24.75 595.28" class="st2"/>
			</g>
			<g id="shape85-74" v:mID="85" v:groupContext="shape" transform="translate(21.375,-9)">
				<title>工作表.85</title>
				<path d="M0 595.28 L24.75 595.28" class="st1"/>
			</g>
		</g>
		<g id="shape86-77" v:mID="86" v:groupContext="shape" transform="translate(993.247,83.341) rotate(89.7828)">
			<title>Vertical.86</title>
			<path d="M0 595.28 L93.47 595.28" class="st4"/>
		</g>
		<g id="shape87-80" v:mID="87" v:groupContext="shape" transform="translate(-198.151,210.605) rotate(-90) scale(-1,1)">
			<title>Vertical.87</title>
			<path d="M0 595.28 L103.46 595.28" class="st4"/>
		</g>
		<g id="shape88-83" v:mID="88" v:groupContext="shape" transform="translate(400.225,-507.995) scale(-1,1)">
			<title>DOT.88</title>
			<path d="M0 593.03 A2.25 2.25 0 0 1 4.5 593.03 A2.25 2.25 0 1 1 0 593.03 Z" class="st5"/>
		</g>
		<g id="group99-85" transform="translate(260.739,-321.509)" v:mID="99" v:groupContext="group">
			<title>RES</title>
			<g id="shape100-86" v:mID="100" v:groupContext="shape"
					transform="translate(-204.195,-16.3208) rotate(-20.9402) scale(-1,1)">
				<title>line-9.6</title>
				<path d="M0 595.28 L9.16 595.28" class="st4"/>
			</g>
			<g id="shape101-89" v:mID="101" v:groupContext="shape" transform="translate(-195.643,1105.42) rotate(-159.06)">
				<title>line-9.7</title>
				<path d="M0 595.28 L18.31 595.28" class="st4"/>
			</g>
			<g id="shape102-92" v:mID="102" v:groupContext="shape"
					transform="translate(-195.643,-6.50258) rotate(-20.9402) scale(-1,1)">
				<title>line-9.8</title>
				<path d="M0 595.28 L18.31 595.28" class="st4"/>
			</g>
			<g id="shape103-95" v:mID="103" v:groupContext="shape" transform="translate(-195.643,1118.51) rotate(-159.06)">
				<title>line-9.9</title>
				<path d="M0 595.28 L18.31 595.28" class="st4"/>
			</g>
			<g id="shape104-98" v:mID="104" v:groupContext="shape"
					transform="translate(-195.643,6.58833) rotate(-20.9402) scale(-1,1)">
				<title>line-9.10</title>
				<path d="M0 595.28 L18.31 595.28" class="st4"/>
			</g>
			<g id="shape105-101" v:mID="105" v:groupContext="shape" transform="translate(-195.643,1131.6) rotate(-159.06)">
				<title>line-9.11</title>
				<path d="M0 595.28 L18.31 595.28" class="st4"/>
			</g>
			<g id="shape106-104" v:mID="106" v:groupContext="shape" transform="translate(-586.723,523.276) rotate(-90) scale(-1,1)">
				<title>line-9.12</title>
				<path d="M0 595.28 L16.36 595.28" class="st4"/>
			</g>
			<g id="shape107-107" v:mID="107" v:groupContext="shape"
					transform="translate(-195.643,19.6792) rotate(-20.9402) scale(-1,1)">
				<title>line-9.15</title>
				<path d="M0 595.28 L9.16 595.28" class="st4"/>
			</g>
			<g id="shape108-110" v:mID="108" v:groupContext="shape" transform="translate(-586.723,578.912) rotate(-90) scale(-1,1)">
				<title>line-9.16</title>
				<path d="M0 595.28 L16.36 595.28" class="st4"/>
			</g>
		</g>
		<g id="group109-113" transform="translate(1019.34,274.912) rotate(90)" v:mID="109" v:groupContext="group">
			<title>RES.109</title>
			<g id="shape110-114" v:mID="110" v:groupContext="shape"
					transform="translate(-204.195,-16.3208) rotate(-20.9402) scale(-1,1)">
				<title>line-9.6</title>
				<path d="M0 595.28 L9.16 595.28" class="st4"/>
			</g>
			<g id="shape111-117" v:mID="111" v:groupContext="shape" transform="translate(-195.643,1105.42) rotate(-159.06)">
				<title>line-9.7</title>
				<path d="M0 595.28 L18.31 595.28" class="st4"/>
			</g>
			<g id="shape112-120" v:mID="112" v:groupContext="shape"
					transform="translate(-195.643,-6.50258) rotate(-20.9402) scale(-1,1)">
				<title>line-9.8</title>
				<path d="M0 595.28 L18.31 595.28" class="st4"/>
			</g>
			<g id="shape113-123" v:mID="113" v:groupContext="shape" transform="translate(-195.643,1118.51) rotate(-159.06)">
				<title>line-9.9</title>
				<path d="M0 595.28 L18.31 595.28" class="st4"/>
			</g>
			<g id="shape114-126" v:mID="114" v:groupContext="shape"
					transform="translate(-195.643,6.58833) rotate(-20.9402) scale(-1,1)">
				<title>line-9.10</title>
				<path d="M0 595.28 L18.31 595.28" class="st4"/>
			</g>
			<g id="shape115-129" v:mID="115" v:groupContext="shape" transform="translate(-195.643,1131.6) rotate(-159.06)">
				<title>line-9.11</title>
				<path d="M0 595.28 L18.31 595.28" class="st4"/>
			</g>
			<g id="shape116-132" v:mID="116" v:groupContext="shape" transform="translate(-586.723,523.276) rotate(-90) scale(-1,1)">
				<title>line-9.12</title>
				<path d="M0 595.28 L16.36 595.28" class="st4"/>
			</g>
			<g id="shape117-135" v:mID="117" v:groupContext="shape"
					transform="translate(-195.643,19.6792) rotate(-20.9402) scale(-1,1)">
				<title>line-9.15</title>
				<path d="M0 595.28 L9.16 595.28" class="st4"/>
			</g>
			<g id="shape118-138" v:mID="118" v:groupContext="shape" transform="translate(-586.723,578.912) rotate(-90) scale(-1,1)">
				<title>line-9.16</title>
				<path d="M0 595.28 L16.36 595.28" class="st4"/>
			</g>
		</g>
		<g id="shape119-141" v:mID="119" v:groupContext="shape"
				transform="translate(443.387,790.095) rotate(-0.00549773) scale(1,-1)">
			<title>Horizontal.119</title>
			<path d="M0 595.28 L92.42 595.28" class="st4"/>
		</g>
		<g id="shape122-144" v:mID="122" v:groupContext="shape" transform="translate(341.327,-309.561)">
			<title>DOT.122</title>
			<path d="M0 593.03 A2.25 2.25 0 0 1 4.5 593.03 A2.25 2.25 0 1 1 0 593.03 Z" class="st5"/>
		</g>
		<g id="shape123-146" v:mID="123" v:groupContext="shape" transform="translate(-198.151,314.07) rotate(-90) scale(-1,1)">
			<title>Vertical.123</title>
			<path d="M0 595.28 L54 595.28" class="st4"/>
		</g>
		<g id="group124-149" transform="translate(352.63,-186.626)" v:mID="124" v:groupContext="group">
			<title>NMOS</title>
			<g id="shape125-150" v:mID="125" v:groupContext="shape" transform="translate(615.526,545.776) rotate(90)">
				<title>工作表.125</title>
				<path d="M0 595.28 L49.5 595.28" class="st1"/>
			</g>
			<g id="shape126-153" v:mID="126" v:groupContext="shape" transform="translate(606.526,550.276) rotate(90)">
				<title>工作表.126</title>
				<path d="M0 595.28 L40.5 595.28" class="st1"/>
			</g>
			<g id="shape127-156" v:mID="127" v:groupContext="shape" transform="translate(11.25,1165.8) rotate(180)">
				<title>工作表.127</title>
				<path d="M0 595.28 L11.25 595.28" class="st1"/>
			</g>
			<g id="shape128-159" v:mID="128" v:groupContext="shape" transform="translate(20.25,-40.5)">
				<title>工作表.128</title>
				<path d="M0 595.28 L24.75 595.28" class="st1"/>
			</g>
			<g id="shape129-162" v:mID="129" v:groupContext="shape" transform="translate(21.375,-9)">
				<title>工作表.129</title>
				<path d="M0 595.28 L8.28 595.28" class="st7"/>
			</g>
		</g>
		<g id="group130-168" transform="translate(929.268,315.319) rotate(90)" v:mID="130" v:groupContext="group">
			<title>CAP.130</title>
			<g id="shape131-169" v:mID="131" v:groupContext="shape" transform="translate(27,-9) scale(-1,1)">
				<title>line-99</title>
				<path d="M0 595.28 L27 595.28" class="st1"/>
			</g>
			<g id="shape132-172" v:mID="132" v:groupContext="shape" transform="translate(27,-1.13687E-13) scale(-1,1)">
				<title>line-99.21</title>
				<path d="M0 595.28 L27 595.28" class="st1"/>
			</g>
		</g>
		<g id="shape133-175" v:mID="133" v:groupContext="shape" transform="translate(343.125,-265.039)">
			<title>Horizontal.133</title>
			<path d="M0 595.28 L54 595.28" class="st4"/>
		</g>
		<g id="shape134-178" v:mID="134" v:groupContext="shape" transform="translate(394.6,-263.374)">
			<title>DOT.134</title>
			<path d="M0 593.03 A2.25 2.25 0 0 1 4.5 593.03 A2.25 2.25 0 1 1 0 593.03 Z" class="st5"/>
		</g>
		<g id="shape135-180" v:mID="135" v:groupContext="shape" transform="translate(279.213,-265.039)">
			<title>Horizontal.135</title>
			<path d="M0 595.28 L54 595.28" class="st4"/>
		</g>
		<g id="group136-183" transform="translate(847.559,321.236) rotate(90)" v:mID="136" v:groupContext="group">
			<title>GND2</title>
			<g id="shape137-184" v:mID="137" v:groupContext="shape" transform="translate(604.276,568.276) rotate(90)">
				<title>工作表.137</title>
				<path d="M0 595.28 L12.37 595.28" class="st4"/>
			</g>
			<g id="shape138-187" v:mID="138" v:groupContext="shape">
				<title>工作表.138</title>
				<path d="M9 581.78 L18 581.78 L9 595.28 L0 581.78 L9 581.78 Z" class="st5"/>
			</g>
		</g>
		<g id="shape139-189" v:mID="139" v:groupContext="shape" transform="translate(-196.724,399.685) rotate(-90) scale(-1,1)">
			<title>Vertical.139</title>
			<path d="M0 595.28 L54 595.28" class="st4"/>
		</g>
		<g id="shape140-192" v:mID="140" v:groupContext="shape"
				transform="translate(399.222,1048.96) rotate(-0.0645241) scale(1,-1)">
			<title>Horizontal.140</title>
			<path d="M0 595.28 L125.86 595.28" class="st4"/>
		</g>
		<g id="group141-195" transform="translate(506.409,-83.0551)" v:mID="141" v:groupContext="group">
			<title>CS</title>
			<g id="shape142-196" v:mID="142" v:groupContext="shape">
				<title>Circle</title>
				<path d="M0 577.28 A18 18 0 0 1 36 577.28 A18 18 0 1 1 0 577.28 Z" class="st8"/>
			</g>
			<g id="shape143-198" v:mID="143" v:groupContext="shape" transform="translate(-577.276,590.776) rotate(-90)">
				<title>工作表.143</title>
				<path d="M12.06 595.28 L12.42 595.28 L27.41 595.28" class="st9"/>
			</g>
		</g>
		<g id="shape145-204" v:mID="145" v:groupContext="shape" transform="translate(-70.8661,512.22) rotate(-90) scale(-1,1)">
			<title>Vertical.145</title>
			<path d="M0 595.28 L49.04 595.28" class="st4"/>
		</g>
		<g id="group150-207" transform="translate(751.181,-375.706) scale(-1,1)" v:mID="150" v:groupContext="group">
			<title>PMOS.150</title>
			<g id="shape151-208" v:mID="151" v:groupContext="shape" transform="translate(615.526,545.776) rotate(90)">
				<title>工作表.151</title>
				<path d="M0 595.28 L49.5 595.28" class="st1"/>
			</g>
			<g id="shape152-211" v:mID="152" v:groupContext="shape" transform="translate(606.526,550.276) rotate(90)">
				<title>工作表.152</title>
				<path d="M0 595.28 L40.5 595.28" class="st1"/>
			</g>
			<g id="shape153-214" v:mID="153" v:groupContext="shape" transform="translate(11.25,1165.8) rotate(180)">
				<title>工作表.153</title>
				<path d="M0 595.28 L11.25 595.28" class="st1"/>
			</g>
			<g id="shape154-217" v:mID="154" v:groupContext="shape" transform="translate(20.25,-40.5)">
				<title>工作表.154</title>
				<path d="M16.11 595.28 L16.47 595.28 L24.75 595.28" class="st2"/>
			</g>
			<g id="shape155-222" v:mID="155" v:groupContext="shape" transform="translate(21.375,-9)">
				<title>工作表.155</title>
				<path d="M0 595.28 L24.75 595.28" class="st1"/>
			</g>
		</g>
		<g id="group156-225" transform="translate(793.028,-434.879) scale(-1,1)" v:mID="156" v:groupContext="group">
			<title>CAP.156</title>
			<g id="shape157-226" v:mID="157" v:groupContext="shape" transform="translate(27,-9) scale(-1,1)">
				<title>line-99</title>
				<path d="M0 595.28 L27 595.28" class="st1"/>
			</g>
			<g id="shape158-229" v:mID="158" v:groupContext="shape" transform="translate(27,-1.13687E-13) scale(-1,1)">
				<title>line-99.21</title>
				<path d="M0 595.28 L27 595.28" class="st1"/>
			</g>
		</g>
		<g id="shape159-232" v:mID="159" v:groupContext="shape" transform="translate(1301.1,83.341) rotate(89.7828)">
			<title>Vertical.159</title>
			<path d="M0 595.28 L93.47 595.28" class="st4"/>
		</g>
		<g id="shape160-235" v:mID="160" v:groupContext="shape" transform="translate(109.701,210.605) rotate(-90) scale(-1,1)">
			<title>Vertical.160</title>
			<path d="M0 595.28 L72.85 595.28" class="st4"/>
		</g>
		<g id="shape161-238" v:mID="161" v:groupContext="shape" transform="translate(184.252,160.397) rotate(-90) scale(-1,1)">
			<title>Vertical.161</title>
			<path d="M0 595.28 L41.51 595.28" class="st4"/>
		</g>
		<g id="shape162-241" v:mID="162" v:groupContext="shape" transform="translate(779.528,-400.456) scale(-1,1)">
			<title>Horizontal.162</title>
			<path d="M0 595.28 L28.35 595.28" class="st4"/>
		</g>
		<g id="shape163-244" v:mID="163" v:groupContext="shape" transform="translate(781.778,-398.206) scale(-1,1)">
			<title>DOT.163</title>
			<path d="M0 593.03 A2.25 2.25 0 0 1 4.5 593.03 A2.25 2.25 0 1 1 0 593.03 Z" class="st5"/>
		</g>
		<g id="shape164-246" v:mID="164" v:groupContext="shape" transform="translate(184.252,85.0305) rotate(-90) scale(-1,1)">
			<title>Vertical.164</title>
			<path d="M0 595.28 L65.91 595.28" class="st4"/>
		</g>
		<g id="shape165-249" v:mID="165" v:groupContext="shape" transform="translate(802.205,-510.245) scale(-1,1)">
			<title>Horizontal.165</title>
			<path d="M0 595.28 L177.17 595.28" class="st6"/>
		</g>
		<g id="shape166-252" v:mID="166" v:groupContext="shape" transform="translate(779.528,-311.82) scale(-1,1)">
			<title>Horizontal.166</title>
			<path d="M0 595.28 L154.77 595.28" class="st4"/>
		</g>
		<g id="shape167-255" v:mID="167" v:groupContext="shape" transform="translate(184.252,273.534) rotate(-90) scale(-1,1)">
			<title>Vertical.167</title>
			<path d="M0 595.28 L9.39 595.28" class="st4"/>
		</g>
		<g id="shape168-258" v:mID="168" v:groupContext="shape" transform="translate(781.778,-507.995) scale(-1,1)">
			<title>DOT.168</title>
			<path d="M0 593.03 A2.25 2.25 0 0 1 4.5 593.03 A2.25 2.25 0 1 1 0 593.03 Z" class="st5"/>
		</g>
		<g id="shape169-260" v:mID="169" v:groupContext="shape" transform="translate(708.077,-507.995) scale(-1,1)">
			<title>DOT.169</title>
			<path d="M0 593.03 A2.25 2.25 0 0 1 4.5 593.03 A2.25 2.25 0 1 1 0 593.03 Z" class="st5"/>
		</g>
		<g id="shape170-262" v:mID="170" v:groupContext="shape" transform="translate(653.634,-309.57) scale(-1,1)">
			<title>DOT.170</title>
			<path d="M0 593.03 A2.25 2.25 0 0 1 4.5 593.03 A2.25 2.25 0 1 1 0 593.03 Z" class="st5"/>
		</g>
		<g id="group171-264" transform="translate(605.489,-375.715)" v:mID="171" v:groupContext="group">
			<title>PMOS.171</title>
			<g id="shape172-265" v:mID="172" v:groupContext="shape" transform="translate(615.526,545.776) rotate(90)">
				<title>工作表.172</title>
				<path d="M0 595.28 L49.5 595.28" class="st1"/>
			</g>
			<g id="shape173-268" v:mID="173" v:groupContext="shape" transform="translate(606.526,550.276) rotate(90)">
				<title>工作表.173</title>
				<path d="M0 595.28 L40.5 595.28" class="st1"/>
			</g>
			<g id="shape174-271" v:mID="174" v:groupContext="shape" transform="translate(11.25,1165.8) rotate(180)">
				<title>工作表.174</title>
				<path d="M0 595.28 L11.25 595.28" class="st1"/>
			</g>
			<g id="shape175-274" v:mID="175" v:groupContext="shape" transform="translate(20.25,-40.5)">
				<title>工作表.175</title>
				<path d="M16.11 595.28 L16.47 595.28 L24.75 595.28" class="st2"/>
			</g>
			<g id="shape176-279" v:mID="176" v:groupContext="shape" transform="translate(21.375,-9)">
				<title>工作表.176</title>
				<path d="M0 595.28 L24.75 595.28" class="st1"/>
			</g>
		</g>
		<g id="shape177-282" v:mID="177" v:groupContext="shape" transform="translate(55.5722,83.3321) rotate(-89.7828) scale(-1,1)">
			<title>Vertical.177</title>
			<path d="M0 595.28 L93.47 595.28" class="st4"/>
		</g>
		<g id="shape178-285" v:mID="178" v:groupContext="shape" transform="translate(56.4183,210.596) rotate(-90) scale(-1,1)">
			<title>Vertical.178</title>
			<path d="M0 595.28 L103.46 595.28" class="st4"/>
		</g>
		<g id="shape179-288" v:mID="179" v:groupContext="shape" transform="translate(648.593,-508.004)">
			<title>DOT.179</title>
			<path d="M0 593.03 A2.25 2.25 0 0 1 4.5 593.03 A2.25 2.25 0 1 1 0 593.03 Z" class="st5"/>
		</g>
		<g id="group180-290" transform="translate(788.08,-321.517) scale(-1,1)" v:mID="180" v:groupContext="group">
			<title>RES.180</title>
			<g id="shape181-291" v:mID="181" v:groupContext="shape"
					transform="translate(-204.195,-16.3208) rotate(-20.9402) scale(-1,1)">
				<title>line-9.6</title>
				<path d="M0 595.28 L9.16 595.28" class="st4"/>
			</g>
			<g id="shape182-294" v:mID="182" v:groupContext="shape" transform="translate(-195.643,1105.42) rotate(-159.06)">
				<title>line-9.7</title>
				<path d="M0 595.28 L18.31 595.28" class="st4"/>
			</g>
			<g id="shape183-297" v:mID="183" v:groupContext="shape"
					transform="translate(-195.643,-6.50258) rotate(-20.9402) scale(-1,1)">
				<title>line-9.8</title>
				<path d="M0 595.28 L18.31 595.28" class="st4"/>
			</g>
			<g id="shape184-300" v:mID="184" v:groupContext="shape" transform="translate(-195.643,1118.51) rotate(-159.06)">
				<title>line-9.9</title>
				<path d="M0 595.28 L18.31 595.28" class="st4"/>
			</g>
			<g id="shape185-303" v:mID="185" v:groupContext="shape"
					transform="translate(-195.643,6.58833) rotate(-20.9402) scale(-1,1)">
				<title>line-9.10</title>
				<path d="M0 595.28 L18.31 595.28" class="st4"/>
			</g>
			<g id="shape186-306" v:mID="186" v:groupContext="shape" transform="translate(-195.643,1131.6) rotate(-159.06)">
				<title>line-9.11</title>
				<path d="M0 595.28 L18.31 595.28" class="st4"/>
			</g>
			<g id="shape187-309" v:mID="187" v:groupContext="shape" transform="translate(-586.723,523.276) rotate(-90) scale(-1,1)">
				<title>line-9.12</title>
				<path d="M0 595.28 L16.36 595.28" class="st4"/>
			</g>
			<g id="shape188-312" v:mID="188" v:groupContext="shape"
					transform="translate(-195.643,19.6792) rotate(-20.9402) scale(-1,1)">
				<title>line-9.15</title>
				<path d="M0 595.28 L9.16 595.28" class="st4"/>
			</g>
			<g id="shape189-315" v:mID="189" v:groupContext="shape" transform="translate(-586.723,578.912) rotate(-90) scale(-1,1)">
				<title>line-9.16</title>
				<path d="M0 595.28 L16.36 595.28" class="st4"/>
			</g>
		</g>
		<g id="group190-318" transform="translate(29.4803,274.903) rotate(-90) scale(-1,1)" v:mID="190" v:groupContext="group">
			<title>RES.190</title>
			<g id="shape191-319" v:mID="191" v:groupContext="shape"
					transform="translate(-204.195,-16.3208) rotate(-20.9402) scale(-1,1)">
				<title>line-9.6</title>
				<path d="M0 595.28 L9.16 595.28" class="st4"/>
			</g>
			<g id="shape192-322" v:mID="192" v:groupContext="shape" transform="translate(-195.643,1105.42) rotate(-159.06)">
				<title>line-9.7</title>
				<path d="M0 595.28 L18.31 595.28" class="st4"/>
			</g>
			<g id="shape193-325" v:mID="193" v:groupContext="shape"
					transform="translate(-195.643,-6.50258) rotate(-20.9402) scale(-1,1)">
				<title>line-9.8</title>
				<path d="M0 595.28 L18.31 595.28" class="st4"/>
			</g>
			<g id="shape194-328" v:mID="194" v:groupContext="shape" transform="translate(-195.643,1118.51) rotate(-159.06)">
				<title>line-9.9</title>
				<path d="M0 595.28 L18.31 595.28" class="st4"/>
			</g>
			<g id="shape195-331" v:mID="195" v:groupContext="shape"
					transform="translate(-195.643,6.58833) rotate(-20.9402) scale(-1,1)">
				<title>line-9.10</title>
				<path d="M0 595.28 L18.31 595.28" class="st4"/>
			</g>
			<g id="shape196-334" v:mID="196" v:groupContext="shape" transform="translate(-195.643,1131.6) rotate(-159.06)">
				<title>line-9.11</title>
				<path d="M0 595.28 L18.31 595.28" class="st4"/>
			</g>
			<g id="shape197-337" v:mID="197" v:groupContext="shape" transform="translate(-586.723,523.276) rotate(-90) scale(-1,1)">
				<title>line-9.12</title>
				<path d="M0 595.28 L16.36 595.28" class="st4"/>
			</g>
			<g id="shape198-340" v:mID="198" v:groupContext="shape"
					transform="translate(-195.643,19.6792) rotate(-20.9402) scale(-1,1)">
				<title>line-9.15</title>
				<path d="M0 595.28 L9.16 595.28" class="st4"/>
			</g>
			<g id="shape199-343" v:mID="199" v:groupContext="shape" transform="translate(-586.723,578.912) rotate(-90) scale(-1,1)">
				<title>line-9.16</title>
				<path d="M0 595.28 L16.36 595.28" class="st4"/>
			</g>
		</g>
		<g id="shape200-346" v:mID="200" v:groupContext="shape" transform="translate(605.489,-400.465) scale(-1,1)">
			<title>Horizontal.200</title>
			<path d="M0 595.28 L70.87 595.28" class="st4"/>
		</g>
		<g id="shape201-349" v:mID="201" v:groupContext="shape" transform="translate(707.492,-309.57) scale(-1,1)">
			<title>DOT.201</title>
			<path d="M0 593.03 A2.25 2.25 0 0 1 4.5 593.03 A2.25 2.25 0 1 1 0 593.03 Z" class="st5"/>
		</g>
		<g id="shape202-351" v:mID="202" v:groupContext="shape" transform="translate(56.4183,314.061) rotate(-90) scale(-1,1)">
			<title>Vertical.202</title>
			<path d="M0 595.28 L54 595.28" class="st4"/>
		</g>
		<g id="group203-354" transform="translate(696.189,-186.635) scale(-1,1)" v:mID="203" v:groupContext="group">
			<title>NMOS.203</title>
			<g id="shape204-355" v:mID="204" v:groupContext="shape" transform="translate(615.526,545.776) rotate(90)">
				<title>工作表.204</title>
				<path d="M0 595.28 L49.5 595.28" class="st1"/>
			</g>
			<g id="shape205-358" v:mID="205" v:groupContext="shape" transform="translate(606.526,550.276) rotate(90)">
				<title>工作表.205</title>
				<path d="M0 595.28 L40.5 595.28" class="st1"/>
			</g>
			<g id="shape206-361" v:mID="206" v:groupContext="shape" transform="translate(11.25,1165.8) rotate(180)">
				<title>工作表.206</title>
				<path d="M0 595.28 L11.25 595.28" class="st1"/>
			</g>
			<g id="shape207-364" v:mID="207" v:groupContext="shape" transform="translate(20.25,-40.5)">
				<title>工作表.207</title>
				<path d="M0 595.28 L24.75 595.28" class="st1"/>
			</g>
			<g id="shape208-367" v:mID="208" v:groupContext="shape" transform="translate(21.375,-9)">
				<title>工作表.208</title>
				<path d="M0 595.28 L8.28 595.28" class="st7"/>
			</g>
		</g>
		<g id="group209-372" transform="translate(119.551,315.31) rotate(-90) scale(-1,1)" v:mID="209" v:groupContext="group">
			<title>CAP.209</title>
			<g id="shape210-373" v:mID="210" v:groupContext="shape" transform="translate(27,-9) scale(-1,1)">
				<title>line-99</title>
				<path d="M0 595.28 L27 595.28" class="st1"/>
			</g>
			<g id="shape211-376" v:mID="211" v:groupContext="shape" transform="translate(27,-1.13687E-13) scale(-1,1)">
				<title>line-99.21</title>
				<path d="M0 595.28 L27 595.28" class="st1"/>
			</g>
		</g>
		<g id="shape212-379" v:mID="212" v:groupContext="shape" transform="translate(705.694,-265.048) scale(-1,1)">
			<title>Horizontal.212</title>
			<path d="M0 595.28 L54 595.28" class="st4"/>
		</g>
		<g id="shape213-382" v:mID="213" v:groupContext="shape" transform="translate(654.218,-263.383) scale(-1,1)">
			<title>DOT.213</title>
			<path d="M0 593.03 A2.25 2.25 0 0 1 4.5 593.03 A2.25 2.25 0 1 1 0 593.03 Z" class="st5"/>
		</g>
		<g id="shape214-384" v:mID="214" v:groupContext="shape" transform="translate(769.606,-265.048) scale(-1,1)">
			<title>Horizontal.214</title>
			<path d="M0 595.28 L54 595.28" class="st4"/>
		</g>
		<g id="group215-387" transform="translate(201.26,321.227) rotate(-90) scale(-1,1)" v:mID="215" v:groupContext="group">
			<title>GND2.215</title>
			<g id="shape216-388" v:mID="216" v:groupContext="shape" transform="translate(604.276,568.276) rotate(90)">
				<title>工作表.216</title>
				<path d="M0 595.28 L12.37 595.28" class="st4"/>
			</g>
			<g id="shape217-391" v:mID="217" v:groupContext="shape">
				<title>工作表.217</title>
				<path d="M9 581.78 L18 581.78 L9 595.28 L0 581.78 L9 581.78 Z" class="st5"/>
			</g>
		</g>
		<g id="shape218-393" v:mID="218" v:groupContext="shape" transform="translate(54.9921,399.676) rotate(-90) scale(-1,1)">
			<title>Vertical.218</title>
			<path d="M0 595.28 L54 595.28" class="st4"/>
		</g>
		<g id="shape219-396" v:mID="219" v:groupContext="shape" transform="translate(649.597,1048.95) rotate(-179.935)">
			<title>Horizontal.219</title>
			<path d="M0 595.28 L125.86 595.28" class="st4"/>
		</g>
		<g id="group220-399" transform="translate(542.409,-83.064) scale(-1,1)" v:mID="220" v:groupContext="group">
			<title>CS.220</title>
			<g id="shape221-400" v:mID="221" v:groupContext="shape">
				<title>Circle</title>
				<path d="M0 577.28 A18 18 0 0 1 36 577.28 A18 18 0 1 1 0 577.28 Z" class="st8"/>
			</g>
			<g id="shape222-402" v:mID="222" v:groupContext="shape" transform="translate(-577.276,590.776) rotate(-90)">
				<title>工作表.222</title>
				<path d="M12.06 595.28 L12.42 595.28 L27.41 595.28" class="st9"/>
			</g>
		</g>
		<g id="shape223-407" v:mID="223" v:groupContext="shape" transform="translate(1119.69,512.212) rotate(90)">
			<title>Vertical.223</title>
			<path d="M0 595.28 L49.04 595.28" class="st4"/>
		</g>
		<g id="shape227-410" v:mID="227" v:groupContext="shape"
				transform="translate(496.156,878.74) rotate(-0.00896217) scale(1,-1)">
			<title>Horizontal.227</title>
			<path d="M0 595.28 L56.69 595.28" class="st4"/>
		</g>
		<g id="shape229-413" v:mID="229" v:groupContext="shape" transform="translate(1119.43,193.114) rotate(89.8365)">
			<title>Vertical.229</title>
			<path d="M0 595.28 L88.65 595.28" class="st4"/>
		</g>
		<g id="shape230-416" v:mID="230" v:groupContext="shape" transform="translate(522.159,-309.57)">
			<title>DOT.230</title>
			<path d="M0 593.03 A2.25 2.25 0 0 1 4.5 593.03 A2.25 2.25 0 1 1 0 593.03 Z" class="st5"/>
		</g>
		<g id="shape231-418" v:mID="231" v:groupContext="shape" transform="translate(522.159,-398.215)">
			<title>DOT.231</title>
			<path d="M0 593.03 A2.25 2.25 0 0 1 4.5 593.03 A2.25 2.25 0 1 1 0 593.03 Z" class="st5"/>
		</g>
		<g id="shape232-420" v:mID="232" v:groupContext="shape"
				transform="translate(-70.8139,452.202) rotate(-89.8718) scale(-1,1)">
			<title>Vertical.232</title>
			<path d="M0 595.28 L22.68 595.28" class="st4"/>
		</g>
		<g id="shape233-423" v:mID="233" v:groupContext="shape" transform="translate(522.159,-139.465)">
			<title>DOT.233</title>
			<path d="M0 593.03 A2.25 2.25 0 0 1 4.5 593.03 A2.25 2.25 0 1 1 0 593.03 Z" class="st5"/>
		</g>
		<g id="shape234-425" v:mID="234" v:groupContext="shape" transform="translate(300.472,-229.606)">
			<title>TEXT_14</title>
			<desc>CL</desc>
			<v:textBlock v:margins="rect(4,4,4,4)" v:tabSpace="42.5197"/>
			<v:textRect cx="28.3465" cy="581.102" width="56.7" height="28.3465"/>
			<rect x="0" y="566.929" width="56.6929" height="28.3465" class="st11"/>
			<text x="19.78" y="586.5" class="st12" v:langID="1033"><v:paragraph v:horizAlign="1"/><v:tabList/>CL</text>		</g>
		<g id="shape235-428" v:mID="235" v:groupContext="shape" transform="translate(214.848,-337.677)">
			<title>TEXT_14.235</title>
			<desc>Rp</desc>
			<v:textBlock v:margins="rect(4,4,4,4)" v:tabSpace="42.5197"/>
			<v:textRect cx="28.3465" cy="581.102" width="56.7" height="28.3465"/>
			<rect x="0" y="566.929" width="56.6929" height="28.3465" class="st11"/>
			<text x="18.45" y="586.5" class="st12" v:langID="1033"><v:paragraph v:horizAlign="1"/><v:tabList/>Rp</text>		</g>
		<g id="shape236-431" v:mID="236" v:groupContext="shape" transform="translate(212.598,-425.197)">
			<title>TEXT_14.236</title>
			<desc>Cp</desc>
			<v:textBlock v:margins="rect(4,4,4,4)" v:tabSpace="42.5197"/>
			<v:textRect cx="28.3465" cy="581.102" width="56.7" height="28.3465"/>
			<rect x="0" y="566.929" width="56.6929" height="28.3465" class="st11"/>
			<text x="18.75" y="586.5" class="st12" v:langID="1033"><v:paragraph v:horizAlign="1"/><v:tabList/>Cp</text>		</g>
		<g id="shape237-434" v:mID="237" v:groupContext="shape" transform="translate(431.717,-321.517)">
			<title>TEXT_14.237</title>
			<desc>RL</desc>
			<v:textBlock v:margins="rect(4,4,4,4)" v:tabSpace="42.5197"/>
			<v:textRect cx="28.3465" cy="581.102" width="56.7" height="28.3465"/>
			<rect x="0" y="566.929" width="56.6929" height="28.3465" class="st11"/>
			<text x="19.47" y="586.5" class="st12" v:langID="1033"><v:paragraph v:horizAlign="1"/><v:tabList/>RL</text>		</g>
		<g id="shape238-437" v:mID="238" v:groupContext="shape" transform="translate(323.15,-386.282)">
			<title>TEXT_14.238</title>
			<desc>gm_dio</desc>
			<v:textBlock v:margins="rect(4,4,4,4)" v:tabSpace="42.5197"/>
			<v:textRect cx="36" cy="581.102" width="72" height="28.3465"/>
			<rect x="0" y="566.929" width="72" height="28.3465" class="st11"/>
			<text x="8.05" y="586.5" class="st12" v:langID="1033"><v:paragraph v:horizAlign="1"/><v:tabList/>gm_dio</text>		</g>
		<g id="shape239-440" v:mID="239" v:groupContext="shape" transform="translate(383.528,-199.643)">
			<title>TEXT_14.239</title>
			<desc>gm</desc>
			<v:textBlock v:margins="rect(4,4,4,4)" v:tabSpace="42.5197"/>
			<v:textRect cx="36" cy="581.102" width="72" height="28.3465"/>
			<rect x="0" y="566.929" width="72" height="28.3465" class="st11"/>
			<text x="24.41" y="586.5" class="st12" v:langID="1033"><v:paragraph v:horizAlign="1"/><v:tabList/>gm</text>		</g>
		<g id="shape240-443" v:mID="240" v:groupContext="shape"
				transform="translate(240.959,1156.54) rotate(-0.00133667) scale(1,-1)">
			<title>Horizontal.240</title>
			<path d="M0 595.28 L379.84 595.28" class="st6"/>
		</g>
		<g id="shape241-446" v:mID="241" v:groupContext="shape" transform="translate(796.535,-34.0157) scale(-1,1)">
			<title>Horizontal.241</title>
			<path d="M0 595.28 L177.17 595.28" class="st6"/>
		</g>
	</g>
</svg>
